<svg id="Capa_1" data-name="Capa 1" xmlns="http://www.w3.org/2000/svg" viewBox="0 0 470 103"><defs><style>.cls-1{fill:#d03737;}.cls-2{fill:#f9d11f;}.cls-3{fill:#ffa402;}.cls-4{fill:#fdeda5;}.cls-5{fill:#fbdf63;}.cls-6{fill:#ed2061;}.cls-7{fill:#68c044;}.cls-8{fill:#f79e60;}.cls-9{fill:#d77d41;}.cls-10{fill:#c71e54;}</style></defs><path class="cls-1" d="M129.35,25.61h33.37v6.6H136.24V47.83h23.64V54.5H136.24V70.34h27.48v6.6H129.35Z"/><path class="cls-1" d="M186.22,77.65a15.78,15.78,0,0,1-7.49-1.78,13.23,13.23,0,0,1-5.36-5.21,16.65,16.65,0,0,1-2-8.42,16.75,16.75,0,0,1,2.06-8.52A14.41,14.41,0,0,1,179,48.25a15.56,15.56,0,0,1,7.6-1.91,12.51,12.51,0,0,1,7,1.88,12.69,12.69,0,0,1,4.3,4.44l-.43,1.06.64-6.18h6.11v29.4h-6.61V69.27l.78,1.71A9,9,0,0,1,197,72.79,17.92,17.92,0,0,1,194.5,75a13.65,13.65,0,0,1-8.28,2.63ZM188,72.18a10.54,10.54,0,0,0,4.47-.92,8.69,8.69,0,0,0,3.3-2.63,9.76,9.76,0,0,0,1.81-4V58.9a9,9,0,0,0-2-3.72,9.92,9.92,0,0,0-3.41-2.49,10.54,10.54,0,0,0-4.33-.88,9.5,9.5,0,0,0-8.42,4.82A10.53,10.53,0,0,0,178.13,62a10.19,10.19,0,0,0,1.35,5.18,10,10,0,0,0,3.62,3.69A9.42,9.42,0,0,0,188,72.18Z"/><path class="cls-1" d="M223.85,77.51a17.33,17.33,0,0,1-6.07-1.1,11.87,11.87,0,0,1-4.86-3.31l2.77-3.83a15,15,0,0,0,3.83,2.66,9,9,0,0,0,3.84.89,9.49,9.49,0,0,0,2.62-.35,4.07,4.07,0,0,0,2-1.21,3.25,3.25,0,0,0,.74-2.2,3.13,3.13,0,0,0-1-2.52,8.24,8.24,0,0,0-2.59-1.46c-1-.38-2.18-.73-3.41-1.06a12.75,12.75,0,0,1-5.54-3.34,7.5,7.5,0,0,1-1.91-5.18,8.6,8.6,0,0,1,1.17-4.37,9.06,9.06,0,0,1,3.51-3.34,11.55,11.55,0,0,1,5.68-1.31,18.41,18.41,0,0,1,5.47.75,12.93,12.93,0,0,1,4.55,2.52L232,53.86a8.28,8.28,0,0,0-3-2,8.8,8.8,0,0,0-3.16-.67,7.12,7.12,0,0,0-2.38.39,4.32,4.32,0,0,0-1.77,1.13,2.71,2.71,0,0,0-.68,1.88,2.8,2.8,0,0,0,1,2.38,8.35,8.35,0,0,0,2.59,1.46c1,.38,2.11.76,3.2,1.13a15.74,15.74,0,0,1,3.83,1.71,8.74,8.74,0,0,1,2.74,2.63,7,7,0,0,1,1,3.9A9.83,9.83,0,0,1,234,72.64a8.8,8.8,0,0,1-3.76,3.55A13.79,13.79,0,0,1,223.85,77.51Z"/><path class="cls-1" d="M254.31,77.15l-14.2-29.61h7.46l11.85,26.27ZM247,91.07l19.38-43.53h6.11l-19,43.53Z"/><path class="cls-1" d="M303.66,25.61h30.46v6.6H310.54V48.54H331.2v6.6H310.54v21.8h-6.88Z"/><path class="cls-1" d="M337.38,62a15.28,15.28,0,0,1,2.1-8,15,15,0,0,1,5.82-5.61,17.15,17.15,0,0,1,8.48-2.06,16.58,16.58,0,0,1,8.38,2.06A14.71,14.71,0,0,1,367.81,54a16.65,16.65,0,0,1,0,15.9,14.93,14.93,0,0,1-5.65,5.64,16.53,16.53,0,0,1-8.45,2.1,17.6,17.6,0,0,1-8.41-2,14.79,14.79,0,0,1-5.79-5.47A15.64,15.64,0,0,1,337.38,62Zm6.68.07a10.48,10.48,0,0,0,1.27,5.15,10,10,0,0,0,3.41,3.65,8.83,8.83,0,0,0,4.83,1.35,9,9,0,0,0,4.9-1.35,9.64,9.64,0,0,0,3.37-3.65,11.31,11.31,0,0,0,0-10.3,9.91,9.91,0,0,0-3.37-3.69,8.8,8.8,0,0,0-4.9-1.38,8.63,8.63,0,0,0-4.86,1.42A10.08,10.08,0,0,0,345.3,57,10.52,10.52,0,0,0,344.06,62Z"/><path class="cls-1" d="M376.08,62a15.37,15.37,0,0,1,2.09-8A15.1,15.1,0,0,1,384,48.4a17.21,17.21,0,0,1,8.49-2.06,16.61,16.61,0,0,1,8.38,2.06A14.76,14.76,0,0,1,406.5,54a16.65,16.65,0,0,1,0,15.9,15,15,0,0,1-5.64,5.64,16.58,16.58,0,0,1-8.45,2.1,17.64,17.64,0,0,1-8.42-2,14.83,14.83,0,0,1-5.78-5.47A15.64,15.64,0,0,1,376.08,62Zm6.67.07A10.49,10.49,0,0,0,384,67.18a9.9,9.9,0,0,0,3.41,3.65,8.82,8.82,0,0,0,4.82,1.35,9,9,0,0,0,4.9-1.35,9.67,9.67,0,0,0,3.38-3.65,11.31,11.31,0,0,0,0-10.3,9.93,9.93,0,0,0-3.38-3.69,8.8,8.8,0,0,0-4.9-1.38,8.65,8.65,0,0,0-4.86,1.42A10.17,10.17,0,0,0,384,57,10.64,10.64,0,0,0,382.75,62Z"/><path class="cls-1" d="M429.33,77.65a13.87,13.87,0,0,1-12.61-7.49,17,17,0,0,1-2-8.27,16.19,16.19,0,0,1,2.06-8.38,14,14,0,0,1,5.54-5.33,16.4,16.4,0,0,1,7.81-1.84,15.3,15.3,0,0,1,6.64,1.49A11.94,11.94,0,0,1,441.75,52l-.35,2.34V22H448v55h-6.6V69.63l.78,1.84a16.76,16.76,0,0,1-5.43,4.44A15.71,15.71,0,0,1,429.33,77.65ZM431.39,72a10.46,10.46,0,0,0,4.65-1,10.27,10.27,0,0,0,3.4-2.67,9.68,9.68,0,0,0,2-3.94V58.83a9.13,9.13,0,0,0-2-3.76,9.92,9.92,0,0,0-3.48-2.52,11.12,11.12,0,0,0-4.5-.89,9.82,9.82,0,0,0-4.9,1.28,9.56,9.56,0,0,0-3.62,3.55,10.82,10.82,0,0,0,0,10.47,10.35,10.35,0,0,0,3.62,3.7A9.24,9.24,0,0,0,431.39,72Z"/><path class="cls-2" d="M27.27,70.37l6.81,2.33L101.7,95.83A3.78,3.78,0,0,0,106.46,91l-.18-.54L83.58,22.67l-2.31-6.88-8.7-1.26L44.32,33,26,61.58l.48,3.4Z"/><path class="cls-3" d="M27.27,70.37l6.81,2.33L101.7,95.83A3.78,3.78,0,0,0,106.46,91l-.18-.54a7.12,7.12,0,0,1-5.18.21L26.51,65Z"/><path class="cls-4" d="M27.27,70.37l6.81,2.33c.35-1.48.78-3,1.31-4.66,2.57-7.88,7.55-17.3,17-26.86C63.8,29.65,75,24.7,83.58,22.67l-2.31-6.88-8.7-1.26L44.32,33,26,61.58l.48,3.4Z"/><path class="cls-5" d="M27.27,70.37l6.81,2.33c.35-1.48.78-3,1.31-4.66L26.51,65Z"/><ellipse class="cls-6" cx="74.54" cy="41.68" rx="6.98" ry="7.06"/><ellipse class="cls-6" cx="79.01" cy="68.07" rx="6.98" ry="7.06"/><path class="cls-6" d="M45.85,76.73l11.85,4a7.09,7.09,0,0,0,0-10A7,7,0,0,0,46.86,72a7.05,7.05,0,0,0-1,4.74Z"/><path class="cls-7" d="M90.73,83.94C92.55,85.78,96,85.27,96,85.27s.5-3.48-1.31-5.31-5.26-1.33-5.26-1.33S88.92,82.11,90.73,83.94Z"/><path class="cls-7" d="M59.06,58C57.7,60.24,59,63.51,59,63.51s3.46-.3,4.82-2.51.08-5.47.08-5.47-3.47.3-4.82,2.5Z"/><path class="cls-8" d="M22.27,73.43l.16,0A3.9,3.9,0,0,0,26,72.38a4,4,0,0,0,1.07-2c1.7-8.2,6.56-20.85,20.07-34.5s26-18.57,34.13-20.29a4,4,0,0,0,3-4.72l0-.15a4,4,0,0,0-4.63-2.93c-9.17,1.94-23.22,7.42-38.1,22.45S21.3,59.48,19.38,68.75a4,4,0,0,0,2.89,4.68Z"/><path class="cls-9" d="M22.27,73.43a4,4,0,0,1,0-1.79c1.92-9.27,7.34-23.47,22.21-38.51S73.38,12.62,82.54,10.68a3.81,3.81,0,0,1,1.78,0,4,4,0,0,0-4.63-2.93c-9.17,1.94-23.22,7.42-38.1,22.45S21.3,59.48,19.38,68.75a4,4,0,0,0,2.89,4.68Z"/><path class="cls-10" d="M45.85,76.73l11.85,4a7,7,0,0,0,2-4.32L46.86,72A7.05,7.05,0,0,0,45.85,76.73Z"/><path d="M18.09,68.47c2-9.44,7.47-23.9,22.57-39.17S70.08,8.46,79.42,6.48a5.27,5.27,0,0,1,6.22,4.11,5.32,5.32,0,0,1-2.76,5.84L98.44,62.9a1.34,1.34,0,0,1-.83,1.69,1.23,1.23,0,0,1-.42.07,1.33,1.33,0,0,1-1.25-.9L82.72,24.26C72.23,27,62.35,33,53.32,42.12a77,77,0,0,0-9,10.82,1.34,1.34,0,0,1-1.09.58,1.31,1.31,0,0,1-.75-.24,1.33,1.33,0,0,1-.33-1.85,79.48,79.48,0,0,1,9.25-11.18h0l0,0h0C60.79,30.81,71,24.6,81.87,21.73l-1.52-4.56A52,52,0,0,0,74.28,19a1.3,1.3,0,0,1-1.69-.78,1.34,1.34,0,0,1,.77-1.72A54.88,54.88,0,0,1,81,14.28a2.58,2.58,0,0,0,1.66-1.14A2.65,2.65,0,0,0,80,9.09C71,11,57.18,16.38,42.53,31.18S22.56,59.93,20.67,69A2.68,2.68,0,0,0,21,71a2.61,2.61,0,0,0,4.06.43,2.74,2.74,0,0,0,.71-1.33c1.74-8.38,6.69-21.29,20.43-35.18A81.31,81.31,0,0,1,67.43,19.15a1.3,1.3,0,0,1,1.76.6,1.34,1.34,0,0,1-.59,1.79A79.06,79.06,0,0,0,48.1,36.82C35.48,49.58,30.54,61.41,28.66,69.44L33.15,71a60.75,60.75,0,0,1,5.69-14.11,1.3,1.3,0,0,1,1.79-.52,1.35,1.35,0,0,1,.51,1.82,57.59,57.59,0,0,0-5.48,13.66l8.85,3a8.38,8.38,0,0,1,2.38-5,8.26,8.26,0,0,1,11.75,0,8.48,8.48,0,0,1,1.23,10.29l42.25,14.46a2.39,2.39,0,0,0,2.51-.59,2.46,2.46,0,0,0,.58-2.53L97.88,69.57a1.34,1.34,0,0,1,.83-1.69,1.3,1.3,0,0,1,1.67.83l7.33,21.88a5.15,5.15,0,0,1-1.22,5.27,5,5,0,0,1-3.57,1.51,4.92,4.92,0,0,1-1.64-.28L27.91,72A4.93,4.93,0,0,1,27,73.32a5.21,5.21,0,0,1-3.71,1.56,5,5,0,0,1-1.09-.11,5.18,5.18,0,0,1-3.32-2.3,5.32,5.32,0,0,1-.75-4ZM57.27,79.23a5.77,5.77,0,0,0-.5-7.52,5.63,5.63,0,0,0-8,0,5.71,5.71,0,0,0-1.66,4Z"/><path d="M80.41,35.74a8.44,8.44,0,0,1,0,11.87,8.23,8.23,0,0,1-11.74,0,8.46,8.46,0,0,1,0-11.87,8.25,8.25,0,0,1,11.74,0Zm-9.87,10a5.63,5.63,0,0,0,8,0,5.77,5.77,0,0,0,0-8.1,5.61,5.61,0,0,0-8,0,5.77,5.77,0,0,0,0,8.1Z"/><path d="M84.88,74a8.23,8.23,0,0,1-11.74,0,1.35,1.35,0,0,1,0-1.88,1.3,1.3,0,0,1,1.87,0,5.63,5.63,0,0,0,8,0A5.77,5.77,0,0,0,83,64a5.66,5.66,0,0,0-9.63,3.34A1.32,1.32,0,1,1,70.77,67a8.38,8.38,0,0,1,2.37-4.9,8.25,8.25,0,0,1,11.74,0,8.44,8.44,0,0,1,0,11.87Z"/><path d="M96.18,86.59a9.18,9.18,0,0,1-1.26.08,9,9,0,0,1-1,0,6.54,6.54,0,0,1-4.12-1.73,6.76,6.76,0,0,1-1.72-4.17,11.16,11.16,0,0,1,0-2.28,1.34,1.34,0,0,1,1.12-1.13,10.21,10.21,0,0,1,2.26,0A6.49,6.49,0,0,1,95.61,79a6.68,6.68,0,0,1,1.72,4.16,11.32,11.32,0,0,1,0,2.29A1.33,1.33,0,0,1,96.18,86.59ZM93.75,80.9a4.64,4.64,0,0,0-3.08-1,4.73,4.73,0,0,0,1,3.1,4.6,4.6,0,0,0,3.07,1A4.82,4.82,0,0,0,93.75,80.9Z"/><path d="M63.77,54.2a1.32,1.32,0,0,1,1.34.84,10.91,10.91,0,0,1,.54,2.22,5.93,5.93,0,0,1-4.35,7.09,10.2,10.2,0,0,1-2.21.49H59A1.32,1.32,0,0,1,57.75,64a10.58,10.58,0,0,1-.55-2.22,6.75,6.75,0,0,1,.74-4.45,6.6,6.6,0,0,1,3.62-2.64,10.2,10.2,0,0,1,2.21-.49Zm-3.59,4.53A4.79,4.79,0,0,0,59.91,62a4.63,4.63,0,0,0,2.77-1.68,4.73,4.73,0,0,0,.26-3.25A4.65,4.65,0,0,0,60.18,58.73Z"/><path d="M85.6,51a1.35,1.35,0,0,1,.4,1.84L84,56a1.3,1.3,0,0,1-1.82.41,1.34,1.34,0,0,1-.4-1.84l2-3.18A1.32,1.32,0,0,1,85.6,51Z"/><path d="M58.18,50.63l-2.83,2.45a1.27,1.27,0,0,1-.85.32,1.3,1.3,0,0,1-1-.46,1.34,1.34,0,0,1,.15-1.88l2.83-2.45a1.31,1.31,0,0,1,1.86.14A1.34,1.34,0,0,1,58.18,50.63Z"/><path d="M67.6,72.89,68,76.33a1.33,1.33,0,0,1-1.18,1.46h-.13a1.32,1.32,0,0,1-1.31-1.2L65,73.17a1.34,1.34,0,0,1,1.18-1.47,1.32,1.32,0,0,1,1.44,1.19Z"/></svg>